<?xml version="1.0" encoding="utf-8"?>
<svg viewBox="0 0 500 500" xmlns="http://www.w3.org/2000/svg">
  <path style="fill: rgb(216, 216, 216); stroke: rgb(0, 0, 0);" d="M 4.95 229.413 A 90.256 90.256 0 0 0 77.599 192.714 A 63.611 63.611 0 0 1 179.456 189.719 A 81.479 81.479 0 0 0 239.372 220.426 A 107.332 107.332 0 0 0 315.765 193.463 A 80.876 80.876 0 0 1 389.162 175.488 A 82.103 82.103 0 0 1 428.108 197.957 A 88.77 88.77 0 0 0 492.518 224.92">
    <title>l-1</title>
  </path>
  <path style="fill: rgb(216, 216, 216); stroke: rgb(0, 0, 0);" d="M 3.266 237.124 C 31.936 237.124 58.902 223.502 75.915 200.425 C 100.344 165.656 151.342 164.157 177.772 197.43 C 192.383 215.824 214.223 227.017 237.688 228.137 C 265.697 229.473 293.116 219.795 314.081 201.174 C 334.071 183.418 361.545 176.69 387.478 183.199 C 402.298 186.919 415.785 194.7 426.424 205.668 C 443.309 223.077 466.582 232.819 490.834 232.631">
    <title>l-2</title>
  </path>
  <path style="fill: rgb(216, 216, 216); stroke: rgb(0, 0, 0);" d="M 4.266 247.124 C 32.936 247.124 59.902 233.502 76.915 210.425 C 101.344 175.656 152.342 174.157 178.772 207.43 C 193.383 225.824 215.223 237.017 238.688 238.137 C 266.697 239.473 294.116 229.795 315.081 211.174 C 335.071 193.418 362.545 186.69 388.478 193.199 C 403.298 196.919 416.785 204.7 427.424 215.668 C 444.309 233.077 467.582 242.819 491.834 242.631">
    <title>l-3</title>
  </path>
  <path style="fill: rgb(216, 216, 216); stroke: rgb(0, 0, 0);" d="M 1.266 254.124 C 29.936 254.124 56.902 240.502 73.915 217.425 C 98.344 182.656 149.342 181.157 175.772 214.43 C 190.383 232.824 212.223 244.017 235.688 245.137 C 263.697 246.473 291.116 236.795 312.081 218.174 C 332.071 200.418 359.545 193.69 385.478 200.199 C 400.298 203.919 413.785 211.7 424.424 222.668 C 441.309 240.077 464.582 249.819 488.834 249.631">
    <title>l-4</title>
  </path>
  <path style="fill: rgb(216, 216, 216); stroke: rgb(0, 0, 0);" d="M 1.266 260.124 C 29.936 260.124 56.902 246.502 73.915 223.425 C 98.344 188.656 149.342 187.157 175.772 220.43 C 190.383 238.824 212.223 250.017 235.688 251.137 C 263.697 252.473 291.116 242.795 312.081 224.174 C 332.071 206.418 359.545 199.69 385.478 206.199 C 400.298 209.919 413.785 217.7 424.424 228.668 C 441.309 246.077 464.582 255.819 488.834 255.631">
    <title>l-5</title>
  </path>
</svg>