<?xml version="1.0" encoding="utf-8"?>
<svg viewBox="0 0 1000 500" xmlns="http://www.w3.org/2000/svg">
  <path
  class="p1" 
  style="fill: rgb(216, 216, 216); stroke: rgb(0, 0, 0);" d="M 43 179.927 C 64.678 179.927 128.633 191.767 139.111 179.927 C 192.176 119.962 235.77 233.186 299.337 179.927 C 314.505 167.219 377.575 119.962 427.444 179.927 C 440.345 195.439 477.422 239.892 523.556 179.927 C 534.393 165.841 604.776 125.244 649.247 185.209 C 660.062 199.793 686.42 215.993 750.64 185.825 C 774.793 174.479 798.698 177.488 830.905 178.871">
    <title>p1</title>
  </path>
  <path
  class="p2" 
  style="fill: rgb(216, 216, 216); stroke: rgb(0, 0, 0);" d="M 41.751 186.591 C 63.429 186.591 127.384 198.431 137.862 186.591 C 190.927 126.626 234.521 239.85 298.088 186.591 C 313.256 173.883 376.326 126.626 426.195 186.591 C 439.096 202.103 476.173 246.556 522.307 186.591 C 533.144 172.505 603.527 131.908 647.998 191.873 C 658.813 206.457 685.171 222.657 749.391 192.489 C 773.544 181.143 797.449 184.152 829.656 185.535">
    <title>p2</title>
  </path>
  <path
  class="p3" 
  style="fill: rgb(216, 216, 216); stroke: rgb(0, 0, 0);" d="M 43.751 193.591 C 65.429 193.591 129.384 205.431 139.862 193.591 C 192.927 133.626 236.521 246.85 300.088 193.591 C 315.256 180.883 378.326 133.626 428.195 193.591 C 441.096 209.103 478.173 253.556 524.307 193.591 C 535.144 179.505 605.527 138.908 649.998 198.873 C 660.813 213.457 687.171 229.657 751.391 199.489 C 775.544 188.143 799.449 191.152 831.656 192.535">
    <title>p3</title>
  </path>
  <path
  class="p4" 
  style="fill: rgb(216, 216, 216); stroke: rgb(0, 0, 0);" d="M 43.751 200.591 C 65.429 200.591 129.384 212.431 139.862 200.591 C 192.927 140.626 236.521 253.85 300.088 200.591 C 315.256 187.883 378.326 140.626 428.195 200.591 C 441.096 216.103 478.173 260.556 524.307 200.591 C 535.144 186.505 605.527 145.908 649.998 205.873 C 660.813 220.457 687.171 236.657 751.391 206.489 C 775.544 195.143 799.449 198.152 831.656 199.535">
    <title>p4</title>
  </path>
  <path
  class="p5" 
  style="fill: rgb(216, 216, 216); stroke: rgb(0, 0, 0);" d="M 44.751 207.591 C 66.429 207.591 130.384 219.431 140.862 207.591 C 193.927 147.626 237.521 260.85 301.088 207.591 C 316.256 194.883 379.326 147.626 429.195 207.591 C 442.096 223.103 479.173 267.556 525.307 207.591 C 536.144 193.505 606.527 152.908 650.998 212.873 C 661.813 227.457 688.171 243.657 752.391 213.489 C 776.544 202.143 800.449 205.152 832.656 206.535">
    <title>p5</title>
  </path>
  <path
  class="p6" 
  style="fill: rgb(216, 216, 216); stroke: rgb(0, 0, 0);" d="M 44 215.706 C 65.678 215.706 129.633 227.546 140.111 215.706 C 193.176 155.741 236.77 268.965 300.337 215.706 C 315.505 202.998 378.575 155.741 428.444 215.706 C 441.345 231.218 478.422 275.671 524.556 215.706 C 535.393 201.62 605.776 161.023 650.247 220.988 C 661.062 235.572 687.42 251.772 751.64 221.604 C 775.793 210.258 799.698 213.267 831.905 214.65">
    <title>p6</title>
  </path>
  <path
  class="p7" 
  style="fill: rgb(216, 216, 216); stroke: rgb(0, 0, 0);" d="M 44.751 221.741 C 66.429 221.741 130.384 233.581 140.862 221.741 C 193.927 161.776 237.521 275 301.088 221.741 C 316.256 209.033 379.326 161.776 429.195 221.741 C 442.096 237.253 479.173 281.706 525.307 221.741 C 536.144 207.655 606.527 167.058 650.998 227.023 C 661.813 241.607 688.171 257.807 752.391 227.639 C 776.544 216.293 800.449 219.302 832.656 220.685">
    <title>p7</title>
  </path>
</svg>